<?xml version="1.0" standalone="no"?>
<!DOCTYPE svg PUBLIC "-//W3C//DTD SVG 20010904//EN"
 "http://www.w3.org/TR/2001/REC-SVG-20010904/DTD/svg10.dtd">
<svg version="1.0" xmlns="http://www.w3.org/2000/svg"
 width="700.000000pt" height="700.000000pt" viewBox="0 0 700.000000 700.000000"
 preserveAspectRatio="xMidYMid meet">
<metadata>
Created by potrace 1.14, written by Peter Selinger 2001-2017
</metadata>
<g transform="translate(0.000000,700.000000) scale(0.100000,-0.100000)"
fill="#000000" stroke="none">
<path d="M1610 6926 c-5 -13 -18 -35 -30 -48 -48 -52 -90 -111 -90 -125 0 -8
8 -26 19 -39 14 -18 19 -42 20 -111 1 -78 4 -90 24 -107 22 -18 22 -19 2 -30
-35 -19 -124 -120 -145 -162 -11 -22 -20 -51 -20 -65 0 -18 -23 -45 -87 -104
-356 -327 -559 -567 -758 -895 -220 -363 -402 -872 -450 -1259 -4 -30 -8 -63
-11 -74 -19 -102 -27 -595 -11 -752 33 -330 101 -631 208 -920 51 -135 190
-423 265 -546 291 -480 690 -884 1158 -1174 357 -220 811 -395 1196 -460 19
-3 42 -8 50 -10 8 -2 42 -7 75 -11 33 -3 69 -8 80 -10 125 -25 813 -24 855 1
3 2 33 6 67 9 34 3 108 16 165 27 57 11 111 22 120 24 27 6 206 55 263 72 199
61 441 167 670 293 116 64 371 239 480 329 232 193 461 436 629 669 331 459
563 1053 621 1592 28 256 28 675 -1 860 -75 494 -165 778 -375 1187 -58 112
-132 240 -161 278 -4 6 -47 64 -94 130 -131 181 -203 266 -363 425 -447 444
-971 745 -1571 901 -124 32 -349 76 -433 84 -29 3 -74 8 -102 11 -27 3 -72 7
-100 10 -71 6 -440 6 -500 -1 -27 -3 -72 -7 -100 -10 -46 -4 -79 -8 -175 -21
-63 -8 -284 -54 -360 -75 -257 -70 -445 -143 -738 -287 -89 -44 -106 -50 -127
-40 -28 12 -30 19 -14 35 13 13 14 57 4 103 -11 46 -7 69 17 99 21 28 18 59
-10 91 -9 11 -30 36 -47 56 -54 65 -65 74 -85 74 -12 0 -24 -10 -30 -24z m12
-96 c-4 -30 -16 -39 -27 -20 -6 9 15 50 26 50 3 0 4 -13 1 -30z m116 -63 c10
4 8 -3 -4 -22 l-18 -28 -7 26 c-4 14 -10 31 -15 39 -4 8 0 6 12 -3 10 -9 25
-14 32 -12z m-152 1 c12 -19 15 -138 4 -138 -6 0 -10 1 -11 3 0 1 -2 22 -5 47
-3 25 -10 49 -15 55 -14 14 -11 45 5 45 8 0 18 -5 22 -12z m2194 -40 c146 -8
440 -59 622 -108 564 -149 1152 -509 1542 -946 118 -131 123 -138 217 -264
201 -270 362 -575 462 -871 31 -90 82 -262 92 -309 20 -88 35 -163 40 -200 4
-24 8 -47 10 -50 1 -3 6 -39 10 -80 4 -41 9 -77 10 -80 5 -9 18 -277 18 -370
-1 -599 -177 -1209 -497 -1720 -186 -298 -454 -596 -738 -823 -422 -336 -913
-560 -1443 -656 -33 -6 -70 -13 -83 -16 -254 -49 -643 -51 -987 -5 -118 16
-143 21 -287 56 -466 114 -863 302 -1225 580 -212 162 -438 385 -584 574 -343
443 -574 960 -655 1470 -3 19 -7 37 -9 40 -2 3 -7 35 -10 70 -4 36 -8 67 -10
70 -7 11 -18 237 -17 370 0 123 6 256 17 334 2 17 7 58 11 91 13 113 21 164
45 275 108 495 329 955 662 1373 92 116 350 383 396 410 l31 18 0 -44 c0 -58
-25 -95 -155 -227 -198 -201 -298 -330 -462 -595 -176 -284 -308 -619 -381
-965 -20 -94 -24 -115 -42 -240 -30 -202 -32 -604 -5 -810 13 -100 23 -160 41
-250 9 -41 18 -83 19 -92 25 -123 117 -398 187 -557 104 -232 265 -497 430
-703 101 -127 361 -387 488 -489 403 -324 911 -555 1410 -644 98 -17 167 -26
320 -42 146 -14 539 -7 652 12 13 2 43 6 68 9 25 3 70 10 100 16 30 6 67 13
81 15 45 8 221 55 324 87 361 110 745 319 1059 576 148 121 391 373 503 522
213 285 388 615 493 929 31 96 76 259 85 309 3 18 12 64 20 103 16 74 18 91
39 289 14 128 14 488 1 610 -84 767 -406 1428 -960 1970 -505 495 -1184 806
-1910 877 -156 15 -586 8 -695 -11 -14 -2 -47 -7 -75 -11 -96 -12 -300 -57
-415 -91 -254 -75 -511 -188 -744 -327 -67 -39 -131 -77 -142 -83 -23 -13 -24
-18 10 86 9 25 28 45 76 78 85 58 396 209 536 261 101 38 318 106 369 115 11
3 40 9 65 15 25 5 59 12 75 15 80 13 214 35 245 40 19 4 82 9 140 12 58 4 106
7 108 9 2 2 358 -4 402 -7z m20 -142 c19 -3 62 -8 94 -11 72 -7 114 -13 186
-26 30 -6 69 -13 85 -15 56 -10 229 -55 325 -86 480 -153 939 -440 1296 -810
320 -332 585 -769 720 -1188 26 -78 83 -287 90 -324 22 -127 34 -201 39 -242
4 -27 8 -59 10 -71 22 -139 22 -549 0 -684 -2 -13 -6 -46 -9 -74 -8 -79 -16
-120 -52 -281 -106 -476 -316 -906 -638 -1304 -75 -93 -371 -389 -413 -413
l-31 -17 -23 32 c-13 18 -40 50 -61 71 l-38 37 15 37 c19 44 33 63 50 63 25 0
69 58 113 148 48 98 47 92 40 242 -1 25 8 49 30 82 51 74 82 149 77 187 -5 46
-48 107 -80 115 -31 8 -82 -14 -116 -50 -12 -13 -25 -24 -29 -24 -13 0 -69
205 -105 390 -81 411 -106 466 -432 953 -137 204 -153 233 -153 271 0 30 -9
57 -35 98 -19 31 -41 58 -49 61 -8 3 -22 30 -31 59 -39 119 -125 267 -194 333
-18 16 -38 50 -46 77 -16 56 -66 131 -101 154 -13 9 -24 24 -24 33 0 9 -11 46
-24 84 l-24 68 24 28 c33 40 31 76 -7 112 -22 21 -33 41 -36 67 -6 64 -24 104
-66 149 -50 54 -52 90 -9 134 49 50 68 142 46 220 -8 25 -16 72 -19 104 -6 56
-48 155 -66 155 -4 0 -33 25 -64 55 -31 30 -61 55 -67 55 -7 0 -24 12 -39 26
-20 19 -39 26 -77 28 -29 2 -64 12 -85 25 -41 25 -75 27 -125 4 -25 -11 -66
-17 -128 -18 -91 -1 -92 -1 -139 -39 -26 -22 -54 -54 -61 -72 -10 -24 -27 -39
-59 -53 -55 -24 -87 -72 -82 -121 4 -39 18 -70 41 -89 16 -13 28 -121 31 -276
2 -127 60 -351 102 -397 10 -11 35 -29 55 -39 63 -32 77 -69 69 -186 -3 -48
-89 -21 -156 48 -52 54 -132 94 -225 114 -3 1 -26 4 -52 8 -25 5 -52 15 -59
23 -21 26 -132 77 -164 76 -32 -1 -99 31 -291 138 -265 148 -320 199 -416 387
-58 114 -87 153 -216 288 -116 122 -127 142 -128 235 -1 75 -20 134 -45 142
-7 2 -14 30 -17 61 -4 56 -4 58 35 95 74 71 359 226 578 315 96 39 312 113
355 122 8 2 42 10 75 18 149 38 348 73 475 83 47 3 86 8 88 9 6 5 426 -3 462
-9z m-2190 -22 c0 -17 -5 -24 -20 -24 -14 0 -20 7 -20 23 0 16 6 23 20 24 15
1 20 -4 20 -23z m118 -121 c3 -21 0 -23 -48 -23 -28 0 -65 -6 -83 -14 -40 -18
-117 -90 -117 -111 0 -21 7 -19 50 15 55 43 101 60 167 60 48 0 55 -2 43 -13
-8 -7 -44 -19 -80 -26 -39 -7 -87 -26 -122 -47 -31 -19 -66 -34 -78 -34 -21 0
-21 1 7 50 39 70 90 117 157 144 71 29 100 29 104 -1z m5 -172 c8 -8 -5 -11
-55 -11 -65 0 -121 -21 -200 -74 -29 -19 -38 -14 -15 8 71 69 232 115 270 77z
m-33 -76 c0 -3 -21 -15 -47 -28 -27 -13 -74 -40 -105 -60 -69 -45 -72 -61 -29
-146 37 -71 42 -89 31 -96 -6 -4 -10 -27 -10 -53 0 -53 -7 -49 -44 23 -43 87
-54 258 -20 296 22 24 66 46 119 58 45 10 105 14 105 6z m-50 -282 c0 -21 -3
-24 -9 -14 -5 8 -7 20 -4 28 8 21 13 15 13 -14z m76 -98 c11 -27 -2 -37 -14
-11 -7 16 -8 26 -1 26 5 0 12 -7 15 -15z m-101 -53 c4 -26 8 -57 10 -69 2 -15
-1 -23 -11 -23 -9 0 -14 12 -15 38 0 20 -2 54 -4 75 -6 54 13 36 20 -21z m-99
-58 c33 -51 33 -54 33 -160 0 -173 10 -265 33 -302 28 -45 18 -95 -32 -173
-49 -77 -61 -118 -64 -228 l-2 -86 -39 -8 c-50 -10 -159 -46 -212 -70 -21 -9
-39 -41 -82 -140 -26 -58 -31 -87 -20 -109 6 -12 2 -25 -17 -47 -44 -53 -91
-33 -61 26 28 55 -10 73 -59 28 -15 -14 -33 -25 -40 -25 -20 0 -26 -17 -10
-32 7 -8 21 -29 31 -47 9 -18 25 -36 36 -38 15 -4 19 -14 19 -44 0 -25 7 -46
19 -58 24 -24 27 -35 18 -86 -3 -22 -9 -58 -12 -80 -3 -22 -16 -110 -30 -195
-24 -146 -101 -626 -110 -680 -8 -48 -65 -375 -69 -395 -2 -11 -7 -40 -11 -65
-19 -118 -46 -213 -66 -229 -20 -16 -20 -19 -7 -52 18 -43 112 -130 172 -158
103 -50 254 -59 376 -22 73 22 165 82 223 144 35 38 49 77 27 77 -5 0 -14 19
-21 43 -12 43 -105 459 -114 506 -9 47 -14 72 -19 89 -3 9 -7 28 -10 42 -2 14
-14 70 -26 125 -12 55 -24 111 -26 125 -3 14 -21 99 -40 190 -37 178 -60 287
-69 335 -3 17 -16 82 -29 145 -39 193 -45 177 153 378 149 152 173 173 198
170 22 -2 32 -13 50 -50 13 -27 28 -48 34 -48 24 0 50 23 70 63 12 23 35 57
52 75 44 46 104 45 201 -4 121 -62 184 -112 198 -155 6 -21 19 -41 29 -44 11
-4 21 -20 24 -38 6 -30 4 -49 -9 -107 -3 -14 -8 -41 -10 -60 -3 -19 -10 -60
-16 -90 -6 -30 -13 -66 -16 -80 -2 -14 -12 -63 -20 -110 -9 -47 -18 -96 -20
-110 -3 -14 -7 -32 -9 -40 -2 -8 -7 -28 -9 -45 -3 -16 -24 -122 -46 -235 -22
-113 -42 -214 -44 -225 -48 -257 -142 -685 -170 -770 -14 -40 112 -160 218
-209 80 -37 262 -53 361 -31 61 13 178 69 235 112 97 73 126 139 71 167 -26
14 -31 26 -69 183 -23 92 -44 183 -47 202 -3 19 -8 37 -10 41 -2 4 -7 22 -10
41 -3 19 -8 41 -10 49 -2 8 -6 26 -9 40 -2 14 -21 99 -41 190 -20 91 -39 176
-41 190 -3 14 -10 45 -15 70 -6 25 -13 56 -15 70 -7 37 -63 299 -75 345 -5 22
-12 51 -14 65 -3 14 -7 36 -10 50 -8 40 -15 71 -25 125 -6 28 -19 83 -30 123
l-20 73 25 34 26 33 117 -77 c64 -43 134 -88 155 -100 20 -13 42 -32 48 -43
10 -19 121 -78 146 -78 18 0 71 -49 104 -96 45 -66 43 -115 -10 -202 -50 -83
-59 -113 -56 -179 3 -48 20 -94 66 -176 19 -33 22 -58 26 -225 5 -161 9 -198
30 -264 13 -43 28 -78 33 -78 12 0 28 -55 33 -110 3 -31 -2 -54 -15 -76 -19
-33 -43 -134 -52 -219 -5 -47 -8 -100 -21 -345 -9 -171 -23 -324 -41 -435 -8
-53 -26 -98 -59 -150 -52 -80 -80 -143 -114 -251 -32 -100 -34 -102 -111 -177
-105 -100 -111 -121 -78 -271 20 -93 22 -116 13 -154 -11 -41 -11 -110 -2
-239 2 -29 1 -53 -2 -53 -10 0 -233 86 -296 115 -116 51 -327 162 -377 196
-14 11 -29 19 -32 19 -21 0 -282 194 -371 275 -551 502 -872 1041 -1013 1705
-18 84 -25 118 -37 195 -42 258 -47 690 -10 905 2 14 7 45 10 70 15 111 70
336 116 474 154 462 396 853 765 1234 l129 133 23 -28 c13 -15 39 -51 58 -79z
m2269 -40 c22 -15 31 -23 20 -19 -11 4 -38 14 -60 22 -50 18 -55 23 -24 23 13
0 42 -12 64 -26z m148 -44 c16 -16 27 -30 24 -30 -20 0 -65 24 -75 40 -20 33
18 25 51 -10z m-2204 -34 c5 -26 5 -44 1 -39 -8 9 -24 100 -15 92 3 -3 9 -27
14 -53z m-101 27 c0 -10 7 -56 16 -103 31 -171 31 -184 1 -204 -19 -13 -30
-15 -38 -7 -12 12 -16 286 -5 314 4 9 12 17 17 17 5 0 10 -8 9 -17z m286 -181
c93 -95 122 -136 178 -247 51 -101 109 -180 166 -227 25 -20 104 -68 176 -108
170 -92 212 -125 71 -56 -60 29 -140 68 -176 85 -44 21 -78 45 -100 73 -19 23
-66 74 -105 113 -39 38 -100 115 -137 170 -37 55 -96 140 -132 188 -36 49 -65
98 -65 110 0 20 0 20 21 1 12 -10 58 -56 103 -102z m1675 85 c0 -21 -1 -21 -9
-2 -12 28 -12 37 0 30 6 -3 10 -16 9 -28z m252 -14 c-12 -20 -14 -14 -5 12 4
9 9 14 11 11 3 -2 0 -13 -6 -23z m275 -65 c8 -16 10 -28 5 -28 -11 0 -44 45
-55 74 -7 20 -7 20 15 0 11 -10 27 -31 35 -46z m-833 -6 c-6 -43 -18 -55 -26
-24 -3 16 21 78 28 70 2 -2 1 -22 -2 -46z m227 8 c12 -8 11 -10 -7 -10 -13 0
-23 5 -23 10 0 13 11 13 30 0z m-79 -71 c-3 -4 -26 -10 -49 -14 -42 -7 -43 -6
-33 13 6 11 23 30 38 42 l27 21 12 -28 c6 -15 9 -31 5 -34z m422 21 c18 0 19
-2 7 -10 -18 -12 -70 -13 -70 -2 0 15 13 23 28 17 7 -3 23 -5 35 -5z m-177
-62 c2 -3 -17 -6 -43 -7 -27 -1 -67 -3 -90 -5 -50 -4 -59 11 -10 16 42 4 137
1 143 -4z m-189 -14 c-3 -3 -12 -4 -19 -1 -8 3 -5 6 6 6 11 1 17 -2 13 -5z
m-1646 -121 c76 -144 117 -207 167 -259 l39 -39 -60 0 c-60 0 -61 0 -93 45
-59 84 -125 218 -131 269 -5 45 1 101 11 101 3 0 32 -53 67 -117z m2138 74 c0
-27 -2 -29 -9 -12 -12 28 -12 57 0 50 6 -3 10 -21 9 -38z m-230 19 c13 -3 26
-7 28 -10 3 -2 -102 -5 -234 -5 -131 0 -232 3 -225 7 6 5 33 9 59 11 26 1 49
3 50 5 5 5 296 -3 322 -8z m-2049 -30 c0 -20 -4 -22 -25 -18 -25 4 -25 5 -9
23 23 25 34 24 34 -5z m1700 -4 c0 -4 -21 -8 -48 -9 -26 -2 -42 0 -35 5 16 10
83 14 83 4z m60 -3 c0 -4 -11 -6 -25 -6 -13 0 -22 3 -20 8 6 9 45 8 45 -2z
m275 -4 c76 -9 96 -13 103 -20 3 -3 -32 -3 -79 1 -104 8 -100 -2 7 -16 43 -6
98 -18 122 -26 51 -19 58 -46 10 -40 -18 3 -55 8 -81 11 -27 4 -58 8 -69 10
-11 3 -70 7 -132 11 -61 4 -113 9 -116 11 -6 7 297 -4 328 -11 12 -3 22 -1 22
5 0 5 -10 9 -22 10 -13 0 -35 3 -50 5 -16 2 -40 6 -55 8 -16 2 -93 5 -172 5
-79 1 -141 4 -138 8 4 3 57 9 119 13 l113 7 -87 1 c-49 1 -88 6 -88 10 0 10
181 8 265 -3z m-100 -89 c33 -4 90 -14 127 -22 37 -7 82 -16 100 -19 17 -3 38
-10 47 -16 12 -8 7 -9 -19 -4 -19 4 -64 11 -100 16 -36 5 -81 12 -100 15 -19
4 -110 7 -202 8 -161 1 -216 9 -147 20 81 13 189 14 294 2z m-1912 -41 c13
-28 14 -33 2 -29 -8 3 -23 21 -33 39 -18 30 -18 32 -2 28 9 -3 24 -20 33 -38z
m1642 -47 c-4 -12 0 -27 11 -39 17 -18 16 -19 -19 -19 -21 0 -37 2 -37 5 0 2
7 23 16 45 16 39 41 47 29 8z m215 23 c11 -8 5 -18 -32 -51 -57 -50 -70 -92
-37 -118 33 -27 20 -86 -24 -108 -18 -9 -49 -32 -69 -52 -27 -25 -39 -31 -42
-21 -2 8 -9 29 -15 48 -13 40 -10 45 26 42 94 -9 108 -7 107 14 -1 12 -13 39
-28 62 -21 32 -26 49 -22 79 2 22 5 42 5 46 1 3 12 19 25 35 25 30 77 42 106
24z m237 -40 c21 -28 20 -119 -3 -163 -20 -38 4 -28 34 15 l22 32 0 -27 c0
-17 -13 -41 -35 -65 -19 -21 -35 -41 -35 -45 0 -9 -78 -45 -115 -54 l-30 -7
32 34 c40 42 82 134 89 191 4 31 -1 54 -15 81 l-19 38 31 -7 c17 -4 37 -14 44
-23z m205 7 c16 -26 9 -51 -23 -75 -13 -11 -15 -9 -11 18 3 19 -2 36 -12 48
-9 10 -13 20 -10 24 9 9 47 -1 56 -15z m-2262 -19 c13 -24 17 -116 7 -178 -6
-42 -30 -91 -43 -91 -4 0 -3 37 1 83 4 45 6 110 6 145 -1 63 10 78 29 41z
m-92 -114 c-2 -31 -5 -55 -8 -54 -3 0 -18 -4 -33 -10 -33 -13 -33 -12 6 91 26
67 40 56 35 -27z m206 -49 c17 -33 12 -52 -16 -67 -18 -10 -19 -7 -16 50 3 63
7 65 32 17z m1552 17 c-8 -8 -96 -14 -96 -6 0 4 23 9 50 9 28 1 49 -1 46 -3z
m644 -43 c-8 -5 -19 -10 -25 -10 -5 0 -3 5 5 10 8 5 20 10 25 10 6 0 3 -5 -5
-10z m-2060 -10 c0 -5 -4 -10 -9 -10 -5 0 -27 -19 -50 -42 -28 -30 -39 -49
-37 -64 4 -20 1 -21 -22 -15 -78 22 -210 -45 -228 -116 -8 -30 -15 -28 -39 10
-26 41 -63 54 -104 37 -17 -7 -107 -89 -199 -181 -127 -128 -174 -169 -192
-169 -24 0 -24 1 9 27 41 32 67 59 141 144 102 118 227 239 262 253 22 10 75
16 147 17 139 2 165 10 238 70 57 47 83 59 83 39z m85 -21 c12 -19 16 -69 6
-69 -14 0 -21 13 -25 49 -3 31 7 41 19 20z m189 -102 c18 -12 18 -17 7 -45
-20 -47 -35 -56 -64 -38 -26 18 -72 102 -82 154 l-7 33 64 -45 c34 -25 72 -52
82 -59z m-248 58 c11 -43 -28 -69 -66 -45 -12 8 -10 14 15 40 35 37 43 37 51
5z m2107 3 c-7 -32 -25 -68 -34 -68 -9 0 9 59 24 78 14 17 16 15 10 -10z m28
-61 c-18 -48 -28 -29 -12 22 12 36 17 43 19 27 2 -12 -2 -34 -7 -49z m-321 10
c36 -47 47 -73 66 -162 24 -116 36 -138 113 -214 l69 -69 -48 -21 c-76 -33
-145 -44 -242 -38 -108 6 -130 19 -165 93 -14 31 -32 58 -40 61 -20 8 -41 -15
-46 -50 -2 -18 -2 20 -1 84 2 114 9 146 41 178 25 25 65 16 95 -20 40 -48 55
-113 58 -249 0 -25 4 -51 8 -58 13 -19 77 -22 103 -4 21 14 21 19 15 139 -14
236 -15 241 -71 267 -19 9 -35 19 -35 22 0 7 45 74 50 74 3 0 16 -15 30 -33z
m-1459 10 l35 -12 -35 -69 c-20 -38 -48 -78 -62 -88 -29 -22 -89 -31 -121 -19
-17 6 -14 9 21 19 46 14 82 56 101 117 18 62 19 65 22 65 2 0 19 -6 39 -13z
m-1035 -94 c-4 -4 -10 -7 -12 -5 -2 1 -17 -4 -33 -13 -19 -9 -34 -28 -41 -52
-13 -40 -59 -108 -67 -100 -2 3 0 14 5 24 6 10 12 32 15 49 6 40 22 69 46 86
21 15 101 24 87 11z m1469 -65 c-20 -35 -33 -52 -29 -38 9 32 55 112 61 106 3
-2 -12 -33 -32 -68z m-655 37 c11 -13 8 -13 -19 -4 -35 12 -40 19 -12 19 10 0
24 -7 31 -15z m679 -124 c-34 -72 -65 -129 -67 -127 -5 6 58 155 83 196 12 19
25 44 28 54 4 10 10 16 13 13 4 -3 -22 -65 -57 -136z m1231 124 c19 -23 8 -37
-18 -20 -12 9 -22 20 -22 26 0 14 26 11 40 -6z m-1179 -102 c-22 -48 -41 -80
-41 -70 0 24 68 172 76 164 3 -3 -12 -45 -35 -94z m-443 23 c31 -29 68 -84 60
-91 -2 -2 -37 18 -79 44 l-77 47 15 28 c16 30 18 30 81 -28z m343 -71 c-25
-63 -47 -113 -49 -111 -3 4 60 173 78 206 23 44 15 15 -29 -95z m322 69 c26
-9 54 -26 62 -37 40 -57 -7 -158 -79 -171 -49 -9 -79 15 -116 93 -25 51 -28
94 -10 116 16 20 83 20 143 -1z m-823 -33 c0 -14 -37 -41 -56 -41 -22 0 -54
23 -54 39 0 4 25 7 55 7 30 -1 55 -3 55 -5z m1831 -68 c13 -16 12 -17 -3 -4
-17 13 -22 21 -14 21 2 0 10 -8 17 -17z m-1404 -93 c-7 -17 -13 -26 -15 -21
-3 10 15 51 22 51 3 0 -1 -14 -7 -30z m794 -34 c2 -65 -1 -80 -21 -96 -22 -18
-12 -51 23 -74 21 -14 30 -14 78 -2 30 8 68 20 84 26 17 7 94 14 173 16 78 2
148 6 155 11 8 5 8 2 -1 -9 -16 -20 -171 -98 -194 -98 -8 0 -21 -7 -28 -15 -7
-8 -10 -15 -7 -15 23 0 261 91 340 130 98 49 99 49 135 34 129 -54 247 -175
313 -320 36 -79 49 -154 27 -154 -8 0 -24 19 -34 42 -19 42 -80 129 -126 179
-81 88 -168 79 -242 -27 -23 -34 -50 -60 -67 -66 -43 -15 -35 -28 19 -29 92
-1 121 -11 166 -57 51 -51 109 -154 93 -164 -28 -18 -44 -6 -70 51 -29 65 -75
110 -115 113 -15 0 -34 2 -42 3 -55 5 -195 -60 -241 -113 -25 -28 -29 -39 -23
-66 8 -38 21 -55 51 -67 31 -12 54 -51 58 -98 6 -83 -22 -58 -93 81 -27 53
-63 115 -79 139 -17 24 -37 58 -46 75 -9 18 -39 57 -67 87 l-51 56 36 16 c32
13 195 154 203 176 5 11 -103 -16 -178 -46 -35 -14 -81 -38 -100 -54 -28 -23
-44 -28 -75 -25 -77 6 -108 16 -134 44 -14 15 -63 47 -109 70 l-83 43 47 43
c53 50 52 75 -3 39 -20 -14 -43 -25 -52 -26 -9 0 -24 -2 -35 -4 -25 -5 -46 4
-46 20 0 21 65 71 129 100 33 15 67 38 76 51 13 21 22 23 85 22 l70 -1 1 -41z
m741 36 c-6 -5 -19 -17 -27 -28 -8 -10 -15 -14 -15 -7 0 15 28 43 43 43 9 0 8
-3 -1 -8z m-1317 -102 c18 -35 26 -80 19 -103 -5 -16 -12 -12 -50 26 -47 48
-56 83 -28 112 19 19 37 8 59 -35z m-1797 -5 c1 -1 -6 -9 -16 -18 -16 -15 -20
-15 -40 -1 -34 23 -27 36 16 28 20 -4 38 -8 40 -9z m1097 -285 c3 -96 8 -218
10 -270 2 -52 6 -178 10 -280 3 -102 8 -219 10 -260 2 -41 7 -165 10 -275 4
-110 8 -226 9 -257 2 -36 -1 -58 -8 -59 -6 0 -89 -1 -184 -2 l-173 -2 5 37 c3
20 15 83 26 140 11 57 23 117 26 133 3 17 28 145 55 285 44 224 99 506 113
580 2 14 18 93 34 175 17 83 33 169 37 193 4 24 8 42 10 40 2 -2 6 -82 10
-178z m78 59 c3 -13 28 -125 55 -249 28 -124 53 -236 56 -250 2 -14 12 -56 21
-95 9 -38 19 -81 21 -95 3 -14 21 -95 40 -180 19 -85 37 -166 39 -181 3 -14
18 -85 35 -159 17 -74 33 -145 35 -159 3 -15 7 -36 9 -48 3 -13 2 -25 -2 -27
-4 -2 -69 -7 -145 -10 l-137 -6 -1 48 c-1 26 -3 83 -4 127 -5 141 -15 436 -20
580 -27 732 -27 841 -2 704z m867 29 c30 -11 70 -23 88 -28 65 -16 46 -22 -48
-16 -52 3 -119 12 -147 20 -54 15 -71 8 -30 -12 12 -6 58 -21 102 -33 77 -22
78 -23 45 -30 -35 -7 -144 -18 -189 -19 -55 0 -6 -12 71 -17 46 -3 84 -6 86
-8 1 -1 5 -12 7 -24 6 -31 -34 -43 -127 -39 -49 3 -79 0 -81 -6 -2 -6 7 -33
21 -61 26 -52 31 -102 19 -172 -6 -33 -5 -43 6 -43 12 0 74 59 194 185 26 28
38 39 27 25 -12 -14 -42 -57 -66 -95 -48 -75 -48 -75 -118 -148 -52 -55 -42
-62 17 -12 23 19 43 35 46 35 9 0 -14 -72 -35 -113 -35 -69 -13 -61 50 18 l62
78 -6 -55 c-11 -100 42 -251 125 -356 23 -28 41 -54 41 -57 0 -3 -20 -5 -44
-5 -30 0 -53 7 -77 25 -19 13 -69 47 -111 76 -90 61 -99 78 -113 214 -12 127
-18 152 -45 200 -70 124 -71 202 -5 314 45 79 58 136 36 171 -6 8 -8 17 -6 20
7 11 147 -11 205 -32z m-2073 -70 c0 -24 4 -144 7 -268 4 -124 9 -281 11 -350
5 -177 17 -667 19 -779 l1 -94 -148 -4 -148 -4 5 28 c3 15 8 46 11 68 4 22 31
191 60 375 29 184 56 353 60 375 3 22 8 51 10 65 2 14 11 70 20 125 23 144 25
154 35 215 5 30 12 73 15 95 2 22 6 49 9 60 2 11 7 43 11 70 6 45 12 65 18 65
2 0 3 -19 4 -42z m2283 -3 c0 -15 -46 -32 -57 -21 -10 9 18 36 38 36 11 0 19
-7 19 -15z m190 -75 c44 -12 112 -80 155 -155 15 -28 48 -80 72 -117 23 -37
54 -92 67 -122 46 -104 118 -190 184 -222 23 -11 59 -17 99 -17 35 0 63 -3 63
-7 0 -10 -81 -30 -124 -30 -27 0 -43 8 -67 33 -92 95 -212 267 -290 415 -85
160 -118 190 -246 222 -24 6 -43 15 -43 19 0 9 61 0 130 -19z m-217 -22 c-20
-103 9 -246 72 -353 29 -51 123 -138 176 -165 21 -11 41 -25 44 -31 11 -17
-65 26 -131 74 -65 48 -104 71 -109 65 -2 -2 9 -30 25 -63 37 -76 37 -81 -1
-25 -90 133 -120 236 -114 389 3 98 16 151 36 151 7 0 8 -13 2 -42z m-2152
-165 c22 -98 42 -191 45 -207 3 -16 18 -93 35 -170 17 -78 34 -161 39 -186 5
-25 27 -130 49 -235 22 -104 49 -237 61 -295 12 -58 24 -113 27 -123 5 -18 -2
-19 -125 -15 -72 2 -134 6 -137 10 -7 7 -15 226 -31 943 -3 143 -7 306 -8 363
-2 56 -1 101 1 98 3 -3 23 -85 44 -183z m2319 42 c0 -72 36 -165 85 -221 l44
-49 -37 -3 c-53 -5 -107 14 -135 48 -33 39 -86 168 -93 227 l-6 48 30 -46 c26
-41 54 -76 87 -113 6 -6 20 -24 33 -40 40 -53 23 -16 -28 57 -27 40 -52 84
-56 99 -5 24 -2 28 28 36 18 5 36 7 41 5 4 -2 7 -24 7 -48z m1130 -53 c0 -4
-15 -13 -32 -20 -18 -6 -64 -34 -103 -63 -38 -28 -91 -61 -118 -74 -52 -25
-55 -15 -4 12 18 9 57 35 87 58 97 73 170 111 170 87z m-1360 -114 c14 -102
15 -104 39 -171 42 -121 105 -199 223 -276 92 -61 100 -71 48 -61 -72 13 -171
102 -244 219 -57 91 -93 232 -87 345 2 47 10 26 21 -56z m1287 45 c-25 -21
-77 -66 -116 -100 -76 -67 -77 -68 -85 -54 -3 5 20 28 52 52 31 23 59 45 62
49 14 16 114 90 122 90 6 0 -10 -17 -35 -37z m-828 -53 c3 -3 19 -30 34 -60
15 -30 32 -62 39 -71 6 -9 8 -24 4 -34 -14 -38 -94 5 -164 89 l-42 50 32 16
c25 11 34 24 42 54 l9 39 20 -39 c11 -21 23 -41 26 -44z m924 63 c-37 -25
-149 -75 -133 -59 21 21 122 76 140 75 10 0 8 -5 -7 -16z m-3 -35 c-19 -11
-69 -43 -110 -71 l-75 -49 45 41 c50 46 137 101 160 101 8 0 -1 -10 -20 -22z
m-370 -44 c-13 -24 -11 -32 24 -101 27 -52 47 -78 65 -85 49 -19 56 -25 85
-79 40 -76 142 -229 214 -323 54 -71 61 -86 67 -140 11 -96 33 -147 155 -366
213 -383 279 -622 235 -855 -24 -129 -23 -179 3 -214 20 -27 20 -31 6 -45 -19
-20 -45 -20 -108 -1 -84 26 -138 14 -162 -34 -16 -31 -5 -59 44 -119 53 -64
51 -106 -8 -192 -24 -36 -56 -77 -71 -91 -34 -31 -30 -57 13 -89 l30 -22 -32
-23 c-40 -29 -77 -78 -97 -128 l-16 -38 -36 35 c-44 42 -142 102 -182 111 -33
8 -124 85 -144 125 -8 15 -16 48 -20 74 -3 26 -10 57 -16 68 -8 15 -7 24 4 36
10 11 18 48 21 100 4 46 14 113 23 150 23 94 23 477 -1 609 -2 10 -6 41 -10
68 -4 28 -9 63 -12 78 l-6 28 64 -7 c52 -5 66 -3 77 10 18 22 6 62 -28 94 -16
15 -38 46 -50 69 -12 24 -35 64 -51 90 -17 26 -30 59 -30 73 0 15 -9 52 -19
84 l-20 56 24 53 c14 28 25 68 25 88 0 39 -26 68 -110 128 -54 37 -80 77 -83
127 -1 28 3 39 18 48 11 6 22 12 25 14 3 2 5 42 6 88 l1 84 41 39 c23 21 42
42 42 47 0 5 -11 43 -25 85 -15 48 -22 88 -18 110 6 39 43 122 51 114 3 -3 -1
-17 -8 -31z m424 -46 c11 -18 45 -71 76 -118 31 -47 86 -136 123 -198 37 -62
86 -139 110 -170 97 -126 184 -312 188 -397 0 -2 5 -19 10 -37 5 -18 11 -44
14 -58 2 -14 14 -70 25 -125 12 -55 24 -113 27 -130 2 -16 16 -74 29 -129 14
-54 23 -100 21 -102 -7 -7 -56 156 -102 340 l-44 180 -54 55 c-77 80 -107 115
-107 124 0 13 -52 98 -57 94 -6 -7 82 -361 111 -442 13 -38 38 -103 55 -143
17 -41 46 -122 65 -180 30 -95 35 -124 40 -257 12 -265 12 -290 5 -315 -9 -32
-10 -24 -15 135 -2 66 -8 147 -14 180 -17 103 -106 357 -165 475 -32 63 -112
314 -120 375 -15 118 -61 208 -117 228 -9 3 -25 19 -35 34 -9 15 -52 73 -94
128 -106 140 -209 301 -209 329 0 14 31 46 45 46 6 0 58 -91 114 -202 106
-211 122 -237 160 -257 32 -18 42 -4 54 71 19 133 23 120 -78 274 -98 150
-116 185 -104 207 14 24 22 21 43 -15z m-514 -40 c0 -35 -6 -49 -37 -80 -20
-21 -40 -38 -44 -38 -4 0 -1 21 7 47 14 48 53 113 67 113 4 0 7 -19 7 -42z
m-946 -105 c3 -81 10 -132 20 -152 17 -33 61 -71 82 -71 8 0 33 -20 56 -45 23
-25 57 -50 75 -56 18 -6 33 -14 34 -17 0 -4 2 -17 5 -29 5 -28 4 -28 -51 -2
-56 26 -181 157 -214 225 -20 39 -25 65 -26 133 -1 80 4 145 10 139 2 -2 6
-58 9 -125z m1225 104 c-2 -1 -15 -11 -29 -22 l-25 -20 19 23 c11 12 24 22 29
22 6 0 8 -1 6 -3z m-589 -262 c89 -18 157 -47 205 -89 l30 -26 -55 16 c-91 27
-203 73 -230 95 l-25 21 30 -7 c17 -4 37 -8 45 -10z m-242 -75 c69 -42 130
-67 182 -75 25 -4 64 -10 88 -15 58 -10 55 10 -6 34 -92 37 -162 69 -158 73 2
3 17 -2 33 -10 15 -8 73 -27 128 -42 105 -28 155 -49 155 -65 0 -49 -213 -43
-335 10 -37 17 -159 119 -143 120 4 0 29 -13 56 -30z m-503 -67 c55 -34 66
-37 139 -37 50 -1 81 -5 83 -12 3 -9 -20 -11 -80 -10 -79 3 -86 5 -143 43 -32
22 -72 45 -89 52 l-30 11 30 -6 c17 -3 57 -22 90 -41z m554 -64 c51 -18 36
-24 -49 -21 -73 3 -80 5 -80 24 0 19 4 20 49 14 27 -4 63 -11 80 -17z m-624
-20 c48 -21 39 -21 309 -15 35 0 61 -3 63 -10 2 -6 -2 -11 -9 -12 -108 -7
-401 -12 -396 -7 4 4 1 20 -8 36 -8 16 -13 29 -11 29 3 0 26 -9 52 -21z m555
-50 c0 -5 -10 -9 -22 -10 -13 0 -32 -2 -43 -4 -63 -13 -184 -26 -275 -31 -58
-2 -135 -6 -172 -8 -38 -2 -68 0 -68 5 0 5 8 9 18 10 39 2 100 8 152 13 137
15 159 17 220 24 91 10 190 11 190 1z m-522 -76 c-10 -2 -26 -2 -35 0 -10 3
-2 5 17 5 19 0 27 -2 18 -5z m310 -80 c6 -18 9 -33 6 -33 -9 0 -34 61 -33 82
0 22 1 22 8 3 5 -11 13 -35 19 -52z m100 46 c34 -35 38 -119 6 -119 -20 0 -54
40 -75 88 -10 24 -19 46 -19 48 0 2 16 4 35 4 22 0 41 -7 53 -21z m-190 -39
c66 -100 130 -171 170 -191 23 -11 42 -23 42 -25 0 -8 -75 27 -110 51 -54 37
-170 170 -170 194 0 25 45 5 68 -29z m-203 -37 c-16 -37 -22 -157 -10 -213 12
-62 49 -140 86 -180 42 -46 43 -38 2 16 -37 50 -51 125 -47 257 4 112 19 177
43 177 5 0 8 -30 8 -68 -1 -84 18 -120 88 -166 47 -31 105 -53 105 -41 0 4
-21 27 -48 53 -44 43 -83 122 -61 122 5 0 9 -4 9 -8 0 -19 109 -115 157 -138
29 -14 56 -31 61 -37 30 -39 35 -236 9 -324 -43 -140 -84 -184 -165 -180 -29
2 -42 -2 -42 -10 0 -7 6 -14 13 -14 66 -8 94 -6 122 5 51 22 112 83 139 139
35 75 78 276 82 382 3 93 15 145 35 145 11 0 6 -167 -7 -230 -12 -59 -28 -120
-51 -195 -14 -44 -34 -116 -44 -160 -35 -146 -47 -172 -84 -189 -44 -21 -73
-20 -141 5 -37 14 -73 37 -100 65 -46 48 -119 183 -153 283 -37 109 -67 146
-41 51 5 -19 12 -51 15 -70 18 -107 75 -247 127 -312 38 -49 112 -98 147 -98
15 0 32 -4 39 -9 19 -11 21 -85 4 -161 -20 -93 -27 -101 -45 -59 -8 20 -27 54
-41 78 -40 62 -61 101 -126 230 -110 220 -155 377 -163 571 -4 96 3 136 39
230 38 99 46 116 51 103 2 -6 -3 -28 -12 -50z m-42 41 c7 -7 -80 -181 -95
-190 -6 -4 -8 -3 -5 2 3 5 8 31 11 57 10 86 60 160 89 131z m593 -52 c-30 -59
-48 -57 -19 2 15 32 29 51 31 43 2 -9 -4 -29 -12 -45z m448 33 c26 -24 34 -59
16 -70 -15 -9 -70 50 -70 74 0 28 21 26 54 -4z m149 -53 c16 -14 16 -16 1 -34
-16 -17 -64 -25 -76 -12 -3 3 -1 21 5 40 9 28 14 33 31 28 12 -4 29 -13 39
-22z m-40 -192 c8 -22 12 -40 9 -40 -17 1 -142 136 -142 154 0 3 26 -12 58
-34 43 -29 63 -50 75 -80z m-440 48 c-6 -87 -118 -548 -163 -668 l-20 -55 6
74 c3 47 28 150 70 290 36 119 72 254 80 301 9 47 18 91 20 98 7 26 10 10 7
-40z m303 -90 c42 -83 79 -132 161 -213 l76 -76 -48 21 c-73 31 -103 57 -131
113 -15 28 -41 73 -60 100 -19 28 -34 62 -34 78 0 16 2 29 5 29 2 0 17 -24 31
-52z m-2019 17 c28 -5 34 -12 44 -48 8 -29 26 -56 61 -89 46 -43 48 -47 24
-42 -120 21 -326 134 -326 178 0 12 128 13 197 1z m1813 -137 c-12 -69 -53
-147 -117 -224 -30 -36 -27 -27 31 106 35 80 70 163 77 184 20 55 25 19 9 -66z
m-2969 30 c18 -24 37 -48 43 -53 6 -6 29 -30 50 -52 l39 -42 -69 20 c-71 22
-112 52 -176 132 l-30 37 55 0 c53 0 57 -2 88 -42z m3140 -74 c43 -89 36 -312
-13 -426 -35 -82 -47 -70 -43 45 2 56 7 113 10 127 13 58 18 170 7 170 -11 0
-18 -20 -53 -145 -26 -98 -61 -170 -67 -140 -6 28 16 117 44 182 23 52 43 125
59 216 8 47 23 39 56 -29z m-981 -415 c9 -20 6 -19 -15 6 -14 17 -33 42 -43
58 -23 38 -35 34 -28 -12 18 -134 100 -280 192 -344 37 -26 62 -54 78 -85 30
-59 63 -170 72 -242 l7 -54 -34 39 c-19 22 -67 72 -107 110 -164 156 -229 334
-237 645 -6 211 0 216 55 47 27 -80 53 -155 60 -168z m1221 184 c0 -27 2 -55
3 -63 2 -8 7 -40 11 -70 4 -30 9 -64 11 -75 23 -121 24 -417 1 -530 -9 -44
-18 -102 -21 -129 -5 -56 -17 -70 -70 -85 -34 -9 -37 -8 -33 7 90 289 93 329
31 492 -22 58 -27 223 -8 259 16 31 18 77 4 86 -5 3 -10 17 -10 30 0 13 5 27
10 30 6 3 10 0 10 -8 0 -13 20 -27 39 -27 4 0 5 29 3 65 -3 43 0 65 7 65 6 0
11 -20 12 -47z m-447 -120 c-6 -67 -29 -143 -74 -242 -38 -85 -82 -215 -93
-278 -10 -51 20 -43 33 8 16 59 60 129 81 129 12 0 21 -59 21 -134 -1 -86 -3
-93 -46 -225 -28 -85 -96 -344 -96 -366 0 -3 5 -5 10 -5 6 0 10 5 10 12 0 20
127 269 175 343 39 60 45 66 45 43 0 -81 -79 -287 -146 -380 -22 -32 -33 -56
-29 -66 5 -14 13 -10 42 23 101 111 128 138 176 170 46 31 97 46 97 29 0 -3
-34 -41 -76 -83 -85 -86 -152 -181 -184 -260 -29 -74 -20 -85 17 -20 33 58
128 168 116 134 -19 -55 -219 -375 -244 -390 -5 -4 -9 23 -10 62 -1 37 -2 79
-4 93 -1 14 -5 63 -9 110 -4 47 -9 94 -11 105 -3 11 -7 36 -9 55 -3 19 -12 73
-20 120 -40 234 -39 452 3 657 28 135 43 150 37 38 l-4 -90 23 110 c26 125 45
182 77 234 21 34 86 111 94 111 2 0 1 -21 -2 -47z m1705 -13 c0 -10 -3 -8 -9
5 -12 27 -12 43 0 25 5 -8 9 -22 9 -30z m-25 -2 c3 -13 6 -34 5 -48 0 -23 -1
-22 -14 9 -8 18 -15 40 -15 47 0 22 17 16 24 -8z m-19 -78 c-5 -33 -20 -13
-22 30 l-2 45 13 -30 c8 -16 13 -36 11 -45z m72 18 c-3 -8 -6 -5 -6 6 -1 11 2
17 5 13 3 -3 4 -12 1 -19z m-101 -38 c5 -33 5 -34 -10 -16 -9 11 -16 31 -16
45 0 35 18 14 26 -29z m-2528 -50 c0 -22 -1 -22 -8 5 -4 17 -8 39 -8 50 0 16
2 15 8 -5 4 -14 8 -36 8 -50z m604 3 c5 -78 1 -424 -6 -493 -3 -30 -11 -82
-18 -114 -23 -117 -30 -48 -43 431 l-6 202 28 15 c15 8 31 15 35 16 3 0 8 -26
10 -57z m2000 35 c-7 -7 -12 -8 -12 -2 0 14 12 26 19 19 2 -3 -1 -11 -7 -17z
m-1425 -135 c-8 -15 -31 -100 -52 -188 -36 -155 -38 -181 -20 -265 3 -14 2
-18 -1 -10 -4 8 -12 29 -20 45 -38 88 -37 139 7 263 18 48 46 129 63 181 l31
93 3 -45 c2 -26 -3 -58 -11 -74z m1337 -17 c28 -52 32 -98 16 -156 -11 -39
-27 -67 -33 -60 -8 9 -20 120 -31 290 l-4 55 13 -40 c7 -22 24 -62 39 -89z
m-2508 -26 c18 -48 64 -128 130 -227 163 -244 236 -400 249 -538 11 -121 26
-177 77 -290 28 -60 60 -150 73 -200 l23 -90 -30 -3 c-16 -2 -31 -2 -33 0 -3
3 -27 114 -42 188 -2 14 -27 84 -54 155 -28 72 -67 180 -89 240 -46 130 -172
398 -224 474 -20 29 -36 55 -36 58 0 2 -11 20 -25 39 -14 19 -37 50 -51 69
-43 60 -45 29 -4 -51 43 -81 50 -118 24 -132 -14 -8 -15 -14 -5 -44 6 -19 26
-57 43 -84 38 -60 111 -205 105 -210 -2 -2 -45 51 -95 118 -50 68 -108 142
-129 165 -36 39 -103 82 -103 66 0 -4 -5 -2 -11 4 -18 18 28 139 86 224 30 44
58 99 66 129 10 39 15 47 20 34 4 -11 20 -53 35 -94z m1212 -131 c10 -46 17
-96 16 -109 -15 -117 -38 -239 -45 -235 -13 8 -41 104 -44 150 -2 24 6 85 16
137 11 51 23 106 26 121 3 15 7 26 9 25 1 -2 12 -42 22 -89z m1021 -16 c25
-94 25 -94 5 -86 -25 9 -33 22 -28 47 3 12 5 33 6 49 1 36 5 34 17 -10z m71
-209 c0 -13 -4 -24 -10 -24 -5 0 -10 14 -10 31 0 17 4 28 10 24 6 -3 10 -17
10 -31z m-2465 -79 c27 -33 52 -66 58 -72 5 -7 -22 8 -59 33 -38 25 -73 52
-77 60 -9 16 11 60 23 48 4 -5 29 -36 55 -69z m2240 11 c22 -22 53 -82 58
-113 8 -40 -6 -80 -55 -165 -40 -67 -40 -67 -63 -50 l-22 17 37 45 c42 50 69
100 76 136 6 34 -21 93 -64 138 -35 38 -36 39 -7 21 17 -10 35 -23 40 -29z
m165 -13 c0 -30 -17 -38 -30 -13 -14 25 6 72 21 49 5 -8 9 -24 9 -36z m158
-181 c33 -31 39 -59 7 -32 -26 21 -107 16 -148 -8 -36 -23 -99 -88 -129 -132
-12 -19 -19 -22 -28 -13 -10 9 -2 25 35 73 62 80 113 114 177 116 27 1 51 4
54 7 3 2 -15 13 -40 23 -44 18 -67 47 -59 71 4 12 20 -1 131 -105z m-2784 41
c-2 -21 2 -50 7 -65 8 -19 7 -32 -1 -49 l-13 -23 -14 29 c-24 45 -9 140 23
145 0 0 0 -17 -2 -37z m1695 -14 c-13 -25 -72 -27 -67 -2 3 18 43 33 65 25 9
-3 10 -9 2 -23z m-1498 -10 c10 -5 19 -16 19 -23 0 -8 20 -35 44 -62 25 -27
54 -66 66 -87 l22 -38 -52 40 c-29 21 -78 47 -109 55 -88 26 -106 38 -109 73
-4 42 19 63 64 57 20 -2 45 -9 55 -15z m1365 -28 c-9 -13 -36 -15 -36 -2 0 5
3 17 6 26 6 15 8 15 22 2 8 -8 11 -20 8 -26z m-1241 -22 c59 -28 139 -109 172
-173 49 -96 114 -318 138 -466 12 -77 -3 -39 -45 111 -83 296 -152 416 -309
536 -24 19 -6 15 44 -8z m1363 -15 c21 -15 30 -34 15 -34 -5 1 -21 12 -38 25
-34 28 -14 35 23 9z m12 -95 c54 -51 46 -59 -16 -17 -35 24 -88 96 -57 79 10
-6 43 -34 73 -62z m-1520 -7 c23 -24 60 -78 60 -90 0 -7 -12 -6 -32 1 -45 16
-128 98 -128 125 l0 22 41 -21 c23 -11 49 -28 59 -37z m1432 24 c17 -21 57
-48 100 -69 72 -35 148 -97 103 -84 -11 3 -33 9 -50 13 -99 23 -179 83 -190
142 -7 41 3 41 37 -2z m-82 -8 c-12 -48 -41 -128 -47 -128 -10 0 10 86 28 123
24 46 29 47 19 5z m1220 27 c0 -4 -92 -68 -127 -89 -26 -15 -11 12 29 52 29
30 49 42 70 42 15 0 28 -2 28 -5z m-2562 -163 c49 -17 152 -93 201 -149 118
-135 219 -333 145 -285 -7 4 -28 34 -47 67 -67 114 -167 226 -262 291 -48 34
-97 77 -109 95 l-21 34 30 -21 c17 -12 45 -26 63 -32z m1363 -104 c1 -122 -8
-204 -31 -254 -15 -35 -24 -43 -61 -52 -24 -6 -45 -9 -47 -7 -8 7 20 114 70
273 35 110 54 158 60 148 5 -8 9 -57 9 -108z m-1396 12 l53 -39 -3 -53 c-1
-29 -6 -84 -10 -122 l-8 -68 -33 5 c-48 8 -84 28 -107 59 -17 23 -21 44 -22
114 -1 47 3 113 8 146 l10 60 29 -31 c16 -17 53 -49 83 -71z m2210 70 c3 -5
-2 -26 -12 -47 l-17 -38 -4 33 c-2 19 -1 40 2 48 6 16 22 18 31 4z m-1060
-206 c-84 -165 -127 -224 -162 -224 -13 0 -23 2 -23 3 0 8 73 142 84 154 6 7
47 64 91 126 44 63 82 110 84 104 2 -6 -31 -79 -74 -163z m984 103 c1 -17 -25
-35 -35 -24 -3 3 0 23 7 44 10 32 13 35 20 18 4 -11 8 -28 8 -38z m-274 -101
c19 -37 19 -36 -6 -36 -20 0 -40 35 -60 105 l-8 30 29 -35 c17 -19 37 -48 45
-64z m-670 -83 c-8 -90 -19 -123 -40 -123 -18 0 -18 4 -6 48 13 45 -9 38 -24
-8 -12 -34 -39 -60 -51 -48 -3 4 4 24 16 45 33 55 104 163 108 163 2 0 1 -34
-3 -77z"/>
<path d="M4193 4190 c-33 -20 -56 -50 -68 -87 -5 -18 -2 -23 12 -23 11 0 24 5
30 11 7 7 36 21 65 33 57 23 73 50 42 73 -24 18 -43 16 -81 -7z"/>
</g>
</svg>
