<svg width="80" height="80" viewBox="0 0 80 80" fill="none" xmlns="http://www.w3.org/2000/svg">
<path d="M20.3125 31.7251C19.5362 31.7251 18.9062 31.0951 18.9062 30.3188C18.9062 29.5426 19.5362 28.9126 20.3125 28.9126C21.0887 28.9126 21.7188 29.5426 21.7188 30.3188C21.7188 31.0951 21.0887 31.7251 20.3125 31.7251Z" fill="#E84A4A"/>
<path d="M76 42.887C76 46.3392 73.1914 49.1478 69.7391 49.1478H58.0545C59.8634 53.7813 60.5956 59.2352 60.4544 64.09C60.4275 65.0165 60.392 65.5522 60.3439 65.8895C60.263 69.2715 57.486 72 54.087 72C50.6347 72 47.8261 69.1914 47.8261 65.7391V64.1739C47.8261 54.2745 35.1143 48.7125 25.5211 46.3275C24.7958 47.9857 23.1401 49.1478 21.2174 49.1478H5.56522C4.7009 49.1478 4 48.4469 4 47.5826V10.0174C4 9.15308 4.7009 8.45218 5.56522 8.45218H21.2174C23.1273 8.45218 24.7734 9.59901 25.5062 11.2397C26.3006 11.0359 27.038 10.8434 27.7187 10.6655C33.1836 9.23822 36.194 8.45218 43.5155 8.45218H60.3478C63.8001 8.45218 66.6087 11.2608 66.6087 14.713C66.6087 16.0003 66.2179 17.1977 65.549 18.1938C67.967 19.0395 69.7391 21.3497 69.7391 24.1043C69.7391 25.3869 69.3578 26.5882 68.6911 27.5888C71.0984 28.4359 72.8696 30.7409 72.8696 33.4957C72.8696 34.7829 72.4787 35.9803 71.8099 36.9764C74.2279 37.8221 76 40.1323 76 42.887ZM22.7826 13.1478C22.7826 12.2848 22.0805 11.5826 21.2174 11.5826H7.13043V46.0174H21.2174C22.0805 46.0174 22.7826 45.3152 22.7826 44.4522V13.1478ZM69.7391 39.7565C66.3819 39.7565 65.5816 39.7565 61.913 39.7565C61.0487 39.7565 60.3478 39.0556 60.3478 38.1913C60.3478 37.327 61.0487 36.6261 61.913 36.6261H66.6087C68.3348 36.6261 69.7391 35.2218 69.7391 33.4957C69.7391 31.7667 68.3376 30.3652 66.6087 30.3652H58.7826C57.9183 30.3652 57.2174 29.6643 57.2174 28.8C57.2174 27.9357 57.9183 27.2348 58.7826 27.2348H63.4783C65.1839 27.2348 66.6087 25.8723 66.6087 24.1043C66.6087 22.3754 65.2072 20.9739 63.4783 20.9739C60.121 20.9739 59.3207 20.9739 55.6522 20.9739C54.7879 20.9739 54.087 20.273 54.087 19.4087C54.087 18.5444 54.7879 17.8435 55.6522 17.8435H60.3478C62.0739 17.8435 63.4783 16.4392 63.4783 14.713C63.4783 12.9869 62.0739 11.5826 60.3478 11.5826H43.5155C36.5961 11.5826 33.8936 12.2884 28.5097 13.6944C27.721 13.9004 26.8559 14.1262 25.913 14.3667V43.1961C37.2402 45.8942 50.9565 52.48 50.9565 64.1739V65.7391C50.9565 67.4653 52.3608 68.8696 54.087 68.8696C55.8099 68.8696 57.2141 67.4674 57.2174 65.744V65.7391C57.2174 65.0589 58.0664 56.7105 54.662 49.1478H49.3913C48.527 49.1478 47.8261 48.4469 47.8261 47.5826C47.8261 46.7183 48.527 46.0174 49.3913 46.0174C50.4843 46.0174 67.9551 46.0174 69.7391 46.0174C71.4652 46.0174 72.8696 44.6131 72.8696 42.887C72.8696 41.158 71.4681 39.7565 69.7391 39.7565Z" fill="#E84A4A"/>
<path d="M20.3125 26.1001C19.536 26.1001 18.9062 25.4704 18.9062 24.6938V13.4438C18.9062 12.6673 19.536 12.0376 20.3125 12.0376C21.089 12.0376 21.7188 12.6673 21.7188 13.4438V24.6938C21.7188 25.4704 21.089 26.1001 20.3125 26.1001Z" fill="#E84A4A"/>
</svg>
