<svg width="80" height="80" viewBox="0 0 80 80" fill="none" xmlns="http://www.w3.org/2000/svg">
<path d="M18.125 48.75C17.2625 48.75 16.5625 49.45 16.5625 50.3125C16.5625 51.175 17.2625 51.875 18.125 51.875C18.9875 51.875 19.6875 51.175 19.6875 50.3125C19.6875 49.45 18.9875 48.75 18.125 48.75Z" fill="#2AB451"/>
<path d="M18.125 55C17.2622 55 16.5625 55.6997 16.5625 56.5625V69.0625C16.5625 69.9253 17.2622 70.625 18.125 70.625C18.9878 70.625 19.6875 69.9253 19.6875 69.0625V56.5625C19.6875 55.6997 18.9878 55 18.125 55Z" fill="#2AB451"/>
<path d="M54.0625 0C53.1997 0 52.5 0.699688 52.5 1.5625V8.75C52.5 9.61281 53.1997 10.3125 54.0625 10.3125C54.9253 10.3125 55.625 9.61281 55.625 8.75V1.5625C55.625 0.699688 54.9253 0 54.0625 0Z" fill="#2AB451"/>
<path d="M75.9375 45.625C75.9375 42.1787 73.1338 39.375 69.6875 39.375H58.0231C59.8289 34.7495 60.5598 29.3052 60.4189 24.4587C60.392 23.5339 60.3566 22.9991 60.3086 22.6623C60.2278 19.2863 57.4556 16.5625 54.0625 16.5625C50.6162 16.5625 47.8125 19.3663 47.8125 22.8125V24.375C47.8125 34.2572 35.1228 39.8095 25.5462 42.1905C24.8222 40.5352 23.1694 39.375 21.25 39.375H5.625C4.76219 39.375 4.0625 40.0747 4.0625 40.9375V78.4375C4.0625 79.3003 4.76219 80 5.625 80H21.25C23.1566 80 24.7998 78.8552 25.5314 77.2173C26.3244 77.4208 27.0605 77.613 27.74 77.7905C33.1955 79.2153 36.2006 80 43.5094 80H60.3125C63.7588 80 66.5625 77.1963 66.5625 73.75C66.5625 72.465 66.1723 71.2697 65.5047 70.2753C67.9184 69.4311 69.6875 67.1248 69.6875 64.375C69.6875 63.0947 69.3069 61.8955 68.6413 60.8966C71.0444 60.0509 72.8125 57.75 72.8125 55C72.8125 53.715 72.4223 52.5197 71.7547 51.5253C74.1684 50.6811 75.9375 48.3748 75.9375 45.625ZM22.8125 75.3125C22.8125 76.1741 22.1116 76.875 21.25 76.875H7.1875V42.5H21.25C22.1116 42.5 22.8125 43.2009 22.8125 44.0625V75.3125ZM69.6875 48.75C66.3361 48.75 65.5372 48.75 61.875 48.75C61.0122 48.75 60.3125 49.4497 60.3125 50.3125C60.3125 51.1753 61.0122 51.875 61.875 51.875H66.5625C68.2856 51.875 69.6875 53.2769 69.6875 55C69.6875 56.7259 68.2884 58.125 66.5625 58.125H58.75C57.8872 58.125 57.1875 58.8247 57.1875 59.6875C57.1875 60.5503 57.8872 61.25 58.75 61.25H63.4375C65.1402 61.25 66.5625 62.6102 66.5625 64.375C66.5625 66.1009 65.1634 67.5 63.4375 67.5C60.0861 67.5 59.2872 67.5 55.625 67.5C54.7622 67.5 54.0625 68.1997 54.0625 69.0625C54.0625 69.9253 54.7622 70.625 55.625 70.625H60.3125C62.0356 70.625 63.4375 72.0269 63.4375 73.75C63.4375 75.4731 62.0356 76.875 60.3125 76.875H43.5094C36.602 76.875 33.9042 76.1705 28.5297 74.7669C27.7423 74.5612 26.8787 74.3358 25.9375 74.0958V45.3164C37.245 42.623 50.9375 36.0486 50.9375 24.375V22.8125C50.9375 21.0894 52.3394 19.6875 54.0625 19.6875C55.7825 19.6875 57.1842 21.0872 57.1875 22.8077V22.8125C57.1875 23.4916 58.035 31.8255 54.6366 39.375H49.375C48.5122 39.375 47.8125 40.0747 47.8125 40.9375C47.8125 41.8003 48.5122 42.5 49.375 42.5C50.4661 42.5 67.9066 42.5 69.6875 42.5C71.4106 42.5 72.8125 43.9019 72.8125 45.625C72.8125 47.3509 71.4134 48.75 69.6875 48.75Z" fill="#2AB451"/>
<path d="M41.5625 19.6875H35.3125C34.4497 19.6875 33.75 20.3872 33.75 21.25C33.75 22.1128 34.4497 22.8125 35.3125 22.8125H41.5625C42.4253 22.8125 43.125 22.1128 43.125 21.25C43.125 20.3872 42.4253 19.6875 41.5625 19.6875Z" fill="#2AB451"/>
<path d="M72.8125 19.6875H66.5625C65.6997 19.6875 65 20.3872 65 21.25C65 22.1128 65.6997 22.8125 66.5625 22.8125H72.8125C73.6753 22.8125 74.375 22.1128 74.375 21.25C74.375 20.3872 73.6753 19.6875 72.8125 19.6875Z" fill="#2AB451"/>
<path d="M68.4249 6.88768C67.8146 6.27768 66.8256 6.27768 66.2151 6.88768L61.7965 11.3063C61.1863 11.9164 61.1863 12.9058 61.7965 13.5161C62.407 14.1263 63.3959 14.1261 64.0063 13.5161L68.4249 9.09752C69.0351 8.48736 69.0351 7.49799 68.4249 6.88768Z" fill="#2AB451"/>
<path d="M46.3282 11.3063L41.9096 6.88768C41.2993 6.27768 40.3103 6.27768 39.6998 6.88768C39.0896 7.49783 39.0896 8.48721 39.6998 9.09752L44.1184 13.5161C44.729 14.1263 45.7179 14.1261 46.3282 13.5161C46.9384 12.906 46.9384 11.9166 46.3282 11.3063Z" fill="#2AB451"/>
</svg>
