<svg width="25" height="25" viewBox="0 0 25 25" fill="none" xmlns="http://www.w3.org/2000/svg">
<path d="M12.5 0C5.60721 0 0 5.60721 0 12.5C0 14.8514 0.653365 17.1341 1.89279 19.1163C1.39904 20.8462 0.507212 24.1183 0.497596 24.1524C0.451442 24.3216 0.500961 24.5024 0.627404 24.624C0.753846 24.7457 0.936538 24.7889 1.10288 24.738L6.05769 23.2139C7.99856 24.3832 10.2212 25 12.5 25C19.3928 25 25 19.3928 25 12.5C25 5.60721 19.3928 0 12.5 0ZM12.5 24.0385C10.3274 24.0385 8.21106 23.4312 6.37933 22.2832C6.30192 22.2346 6.21298 22.2101 6.12404 22.2101C6.07644 22.2101 6.02885 22.2173 5.98269 22.2313L1.65625 23.563C1.97404 22.4029 2.54519 20.3279 2.87644 19.1736C2.9149 19.0399 2.89327 18.8957 2.81779 18.7788C1.60337 16.9101 0.961538 14.7389 0.961538 12.5C0.961538 6.13798 6.13798 0.961538 12.5 0.961538C18.862 0.961538 24.0385 6.13798 24.0385 12.5C24.0385 18.862 18.862 24.0385 12.5 24.0385Z" fill="#D7AC8A"/>
<path d="M20.666 15.4456C19.7785 14.9528 19.0227 14.4586 18.4713 14.098C18.0501 13.823 17.7458 13.6244 17.5227 13.5124C16.8992 13.2013 16.4266 13.4211 16.2468 13.6028C16.2242 13.6254 16.204 13.6499 16.1867 13.6759C15.5391 14.6475 14.6934 15.5768 14.4458 15.6268C14.1598 15.5821 12.8208 14.8211 11.49 13.7129C10.1314 12.5807 9.27659 11.4965 9.1511 10.7581C10.0227 9.86096 10.3367 9.29654 10.3367 8.65423C10.3367 7.99221 8.79245 5.22827 8.51312 4.94894C8.23284 4.66914 7.60159 4.62539 6.63668 4.81769C6.54389 4.83644 6.45832 4.88212 6.39101 4.94894C6.27418 5.06577 3.54053 7.85279 4.83957 11.2307C6.26553 14.9379 9.92562 19.247 14.592 19.947C15.1223 20.0263 15.6194 20.0658 16.0848 20.0658C18.83 20.0658 20.4501 18.6845 20.9064 15.9446C20.9405 15.7441 20.8439 15.5441 20.666 15.4456ZM14.7348 18.9961C9.80014 18.2562 6.69197 13.3672 5.73716 10.8855C4.79005 8.42394 6.53668 6.22923 6.97514 5.73308C7.33187 5.6725 7.70736 5.64702 7.86409 5.67154C8.19149 6.12683 9.32514 8.26866 9.37514 8.65423C9.37514 8.90664 9.29293 9.25808 8.31409 10.2374C8.2237 10.3273 8.17322 10.4494 8.17322 10.5773C8.17322 13.0946 13.4828 16.5869 14.4232 16.5869C15.241 16.5869 16.3074 15.2124 16.9146 14.3167C16.9497 14.3182 17.0088 14.3302 17.0929 14.3725C17.266 14.4595 17.566 14.6552 17.9453 14.9033C18.4463 15.2307 19.1117 15.6653 19.8973 16.1158C19.5405 17.8321 18.5434 19.5682 14.7348 18.9961Z" fill="#D7AC8A"/>
</svg>
