<svg width="35" height="34" viewBox="0 0 35 34" fill="none" xmlns="http://www.w3.org/2000/svg">
<path fill-rule="evenodd" clip-rule="evenodd" d="M34.9429 15.6543C34.1135 6.7784 26.6612 -0.00561775 17.7466 3.49077e-06C8.83202 0.00562473 0.000399693 7.24814 1.45976e-08 16.7884C-0.00039968 26.329 8.20722 33.7305 17.7466 33.5782C27.4456 33.4233 35.7723 24.5303 34.9429 15.6543ZM33.7359 17.2685C33.7413 9.01932 27.4673 2.12161 19.2545 1.34753C11.0418 0.573445 1.3667 7.58182 1.43912 16.7884C1.50793 25.5343 9.00082 32.2164 17.7466 32.1391C26.2736 32.0636 33.7305 25.5176 33.7359 17.2685Z" fill="#D7AC8A"/>
<path d="M18.3864 3.83779C18.3864 3.48455 18.1001 3.19824 17.7469 3.19824C12.0935 3.20784 6.99186 6.59152 4.78399 11.796C4.71781 11.9523 4.71653 12.1285 4.78032 12.2858C4.8441 12.443 4.96784 12.5685 5.12419 12.6345C5.20281 12.6682 5.28743 12.6856 5.37294 12.6857C5.6298 12.6858 5.86184 12.5321 5.96198 12.2956C7.96149 7.55748 12.604 4.47756 17.7467 4.47749C18.1 4.47741 18.3864 4.19103 18.3864 3.83779Z" fill="#D7AC8A"/>
<path d="M22.1215 28.5317C21.9024 28.5967 21.7346 28.7737 21.6814 28.9959C21.6282 29.2182 21.6975 29.4519 21.8634 29.6092C22.0293 29.7664 22.2663 29.8231 22.4855 29.7581C27.91 28.1548 31.847 23.4591 32.4795 17.8381C32.519 17.4871 32.2665 17.1705 31.9155 17.131C31.5645 17.0915 31.248 17.344 31.2085 17.6951C30.6247 22.8019 27.0484 27.0669 22.1215 28.5317Z" fill="#D7AC8A"/>
<path d="M23.1828 23.3441C23.4414 23.3441 23.6746 23.1883 23.7735 22.9493C23.8724 22.7104 23.8178 22.4353 23.6349 22.2524L20.8707 19.4882C21.3344 18.8409 21.5838 18.0645 21.5838 17.2683C21.5838 16.915 21.2975 16.6287 20.9443 16.6287C20.5911 16.6287 20.3048 16.915 20.3048 17.2683C20.3048 18.6811 19.1594 19.8265 17.7465 19.8265C16.3336 19.8265 15.1882 18.6811 15.1882 17.2683C15.1882 15.8554 16.3336 14.71 17.7465 14.71C18.0997 14.71 18.386 14.4237 18.386 14.0705V7.03506C18.386 6.68182 18.0997 6.39551 17.7465 6.39551C17.3933 6.39551 17.1069 6.68189 17.1069 7.03506V13.4839C15.5464 13.7426 14.3046 14.9324 13.9792 16.4803C13.6539 18.0283 14.3117 19.6173 15.636 20.4824C16.9603 21.3475 18.6797 21.3113 19.9665 20.3913L22.7307 23.1555C22.8503 23.2759 23.0129 23.3438 23.1828 23.3441Z" fill="#D7AC8A"/>
<path d="M17.99 16.6799C17.7518 16.5798 17.4768 16.6327 17.2929 16.8142C17.2365 16.8764 17.1911 16.9478 17.1586 17.0253C17.1259 17.1022 17.1085 17.1848 17.1074 17.2683C17.1085 17.3091 17.1128 17.3497 17.1202 17.3898C17.1262 17.4322 17.1391 17.4732 17.1586 17.5113C17.1714 17.5506 17.1908 17.5874 17.2162 17.6201C17.2417 17.6584 17.2674 17.6904 17.2929 17.7224C17.4155 17.8392 17.5777 17.9055 17.747 17.9079C17.8306 17.9069 17.9132 17.8895 17.9901 17.8567C18.0675 17.8241 18.1389 17.7787 18.2012 17.7224C18.2267 17.6904 18.2524 17.6584 18.2779 17.6201C18.3237 17.5499 18.356 17.4718 18.3732 17.3898C18.3811 17.3498 18.3856 17.3091 18.3866 17.2683C18.3856 17.1848 18.3682 17.1022 18.3354 17.0253C18.3029 16.9478 18.2575 16.8764 18.2011 16.8142C18.1387 16.7578 18.0675 16.7125 17.99 16.6799Z" fill="#D7AC8A"/>
</svg>
