<svg width="35" height="35" viewBox="0 0 35 35" fill="none" xmlns="http://www.w3.org/2000/svg">
<path d="M11.4828 23.958C12.9243 25.9904 14.3634 27.808 15.3171 28.9788C15.456 29.1491 15.5861 29.3072 15.712 29.4594H12.8339C12.5117 29.4594 12.2506 29.7205 12.2506 30.0427C12.2506 30.3649 12.5117 30.626 12.8339 30.626H22.1672C22.4894 30.626 22.7505 30.3649 22.7505 30.0427C22.7505 29.7205 22.4894 29.4594 22.1672 29.4594H19.289C19.415 29.3072 19.5451 29.149 19.6846 28.9788C20.6377 27.8121 22.0763 25.9904 23.5182 23.958C24.9489 21.9821 26.2367 19.9065 27.3717 17.7473C28.5629 15.4081 29.1673 13.4662 29.1673 11.9752C29.1712 8.87706 27.9419 5.90478 25.7507 3.71454C25.6043 3.56278 25.3875 3.5018 25.1835 3.55506C24.9795 3.60831 24.8201 3.76745 24.7666 3.97137C24.713 4.17528 24.7737 4.39219 24.9252 4.53875C26.8975 6.51052 28.0041 9.18618 28.0006 11.9751C28.0006 13.2807 27.4394 15.0446 26.3323 17.2176C25.2229 19.3268 23.9643 21.3542 22.5663 23.2843C21.1441 25.2903 19.7225 27.0876 18.7804 28.2426C18.4672 28.6264 18.1854 28.9659 17.9451 29.253C17.8329 29.3811 17.6709 29.4545 17.5006 29.4545C17.3303 29.4545 17.1683 29.381 17.0561 29.253C16.8158 28.966 16.5341 28.6264 16.2208 28.2426C15.2787 27.0882 13.8571 25.2909 12.4349 23.2843C11.0369 21.3542 9.77836 19.3268 8.66895 17.2176C7.56063 15.0446 7.00063 13.2807 7.00063 11.9751C7.00029 7.74988 9.52713 3.93418 13.4173 2.28534C16.0313 1.18927 18.9759 1.18927 21.5899 2.28534C21.7818 2.36669 22.0026 2.33955 22.169 2.21398C22.3355 2.08847 22.4223 1.88366 22.3968 1.67674C22.3713 1.46981 22.2374 1.29222 22.0454 1.21087C16.1051 -1.29465 9.25835 1.48854 6.75098 7.42804C6.14292 8.86674 5.83107 10.4132 5.834 11.9751C5.834 13.4661 6.43837 15.4081 7.62954 17.7501C8.76445 19.9085 10.0523 21.983 11.4828 23.958Z" fill="#D7AC8A"/>
<path d="M17.5005 6.70959C17.8227 6.70959 18.0839 6.44846 18.0839 6.12628C18.0839 5.8041 17.8227 5.54297 17.5005 5.54297C14.7176 5.5429 12.3222 7.50879 11.7792 10.2383C11.2362 12.9677 12.697 15.7006 15.2681 16.7656C17.8391 17.8307 20.8045 16.9311 22.3507 14.6172C23.8968 12.3033 23.5931 9.21942 21.6253 7.25155C21.4788 7.09993 21.262 7.03909 21.058 7.09248C20.8541 7.14587 20.6948 7.30514 20.6414 7.50906C20.588 7.71305 20.6489 7.92988 20.8005 8.07638C22.3748 9.65063 22.6178 12.1177 21.381 13.9688C20.1442 15.82 17.7719 16.5397 15.715 15.6878C13.6581 14.8359 12.4894 12.6496 12.9237 10.466C13.3579 8.28241 15.2742 6.70966 17.5005 6.70959Z" fill="#D7AC8A"/>
<path d="M34.7804 32.1261L31.1929 25.7094C30.8685 25.1393 30.2615 24.7889 29.6056 24.793H25.4482C25.126 24.793 24.8649 25.0541 24.8649 25.3763C24.8649 25.6985 25.126 25.9596 25.4482 25.9596H29.6056C29.8391 25.9551 30.057 26.0769 30.1755 26.2781L33.7619 32.6948C33.8596 32.8618 33.8575 33.0688 33.7566 33.2338C33.6375 33.4307 33.422 33.5486 33.192 33.543H1.80857C1.57874 33.5485 1.36355 33.4305 1.24446 33.2338C1.14356 33.0688 1.14158 32.8618 1.2392 32.6948L4.82555 26.2781C4.94388 26.0769 5.16154 25.9552 5.39485 25.9596H9.55227C9.87445 25.9596 10.1356 25.6985 10.1356 25.3763C10.1356 25.0541 9.87445 24.793 9.55227 24.793H5.39492C4.73866 24.7887 4.13122 25.1391 3.80651 25.7094L0.219548 32.1261C-0.0795255 32.6544 -0.0726212 33.3025 0.237663 33.8243C0.564559 34.3799 1.164 34.7178 1.80857 34.7098H33.192C33.8363 34.7176 34.4356 34.3798 34.7623 33.8243C35.0726 33.3024 35.0795 32.6544 34.7804 32.1261Z" fill="#D7AC8A"/>
<path d="M28.5838 27.709H26.2505C26.1353 27.7092 26.0227 27.7432 25.9267 27.807L24.1767 28.9737C23.9087 29.1525 23.8363 29.5148 24.0151 29.7828C24.1939 30.0509 24.5562 30.1232 24.8242 29.9444L26.4255 28.8757H28.5838C28.906 28.8757 29.1671 28.6145 29.1671 28.2924C29.1671 27.9701 28.906 27.709 28.5838 27.709Z" fill="#D7AC8A"/>
<path d="M25.0835 31.7933C25.0835 32.1155 25.3446 32.3766 25.6668 32.3766H30.3335C30.6557 32.3766 30.9168 32.1155 30.9168 31.7933C30.9168 31.4711 30.6557 31.21 30.3335 31.21H25.6668C25.3446 31.21 25.0835 31.4711 25.0835 31.7933Z" fill="#D7AC8A"/>
<path d="M10.5001 30.0424C10.7573 30.0427 10.9843 29.8746 11.059 29.6285C11.1338 29.3824 11.0385 29.1164 10.8245 28.9737L9.0745 27.807C8.97838 27.7432 8.86552 27.7091 8.75013 27.709H6.41681C6.09463 27.709 5.8335 27.9702 5.8335 28.2923C5.8335 28.6145 6.0947 28.8756 6.41681 28.8756H8.57513L10.1782 29.9443C10.2735 30.008 10.3856 30.0421 10.5001 30.0424Z" fill="#D7AC8A"/>
<path d="M4.66681 31.21C4.34463 31.21 4.0835 31.4711 4.0835 31.7933C4.0835 32.1155 4.34463 32.3766 4.66681 32.3766H9.33352C9.6557 32.3766 9.91683 32.1155 9.91683 31.7933C9.91683 31.4711 9.6557 31.21 9.33352 31.21H4.66681Z" fill="#D7AC8A"/>
</svg>
