<svg width="35" height="35" viewBox="0 0 35 35" fill="none" xmlns="http://www.w3.org/2000/svg">
<path d="M34.993 13.38C34.9893 13.3398 34.9813 13.3001 34.969 13.2616C34.961 13.2272 34.9499 13.1937 34.9358 13.1612C34.9195 13.1296 34.8999 13.0997 34.8775 13.072C34.855 13.0391 34.829 13.0088 34.7999 12.9815C34.7905 12.9734 34.7865 12.9622 34.7766 12.9541L29.1664 8.597V4.08123C29.1664 3.11471 28.3828 2.33114 27.4163 2.33114H21.0944L18.5631 0.365775C17.9378 -0.121925 17.0609 -0.121925 16.4356 0.365775L13.9038 2.33114H7.58185C6.61534 2.33114 5.83176 3.11465 5.83176 4.08123V8.59707L0.223341 12.9542C0.213429 12.9624 0.209327 12.9735 0.20003 12.9816C0.170975 13.0088 0.144929 13.0392 0.122438 13.072C0.100015 13.0997 0.0804631 13.1296 0.0641244 13.1613C0.0499732 13.1937 0.0388985 13.2273 0.0309 13.2617C0.0187314 13.2996 0.010733 13.3387 0.00697301 13.3784C0.00697301 13.3906 0 13.4011 0 13.4134V33.2493C0.000820354 33.6204 0.120866 33.9814 0.34243 34.2789C0.345916 34.2842 0.346531 34.2906 0.350565 34.2953C0.354666 34.2999 0.363417 34.3052 0.369228 34.3116C0.696959 34.7429 1.20667 34.9971 1.74831 34.9994H33.2499C33.7937 34.9978 34.3055 34.7423 34.6336 34.3088C34.6383 34.3029 34.6453 34.3012 34.6494 34.2953C34.6535 34.2895 34.654 34.2843 34.6576 34.279C34.8791 33.9814 34.9992 33.6204 35 33.2494V13.415C34.9999 13.4028 34.9936 13.3922 34.993 13.38ZM17.149 1.28628C17.3527 1.1244 17.6412 1.1244 17.845 1.28628L19.1908 2.33107H15.8073L17.149 1.28628ZM1.89529 33.8327L17.1491 21.984C17.353 21.8224 17.6412 21.8224 17.845 21.984L33.1029 33.8327H1.89529ZM33.8333 32.9232L18.5631 21.0634C17.9377 20.5762 17.061 20.5762 16.4356 21.0634L1.1649 32.9232V14.3035L10.7245 21.7268C10.9792 21.9243 11.3458 21.8779 11.5433 21.6232C11.7408 21.3685 11.6944 21.0019 11.4397 20.8044L1.72787 13.2633L5.83183 10.0741V14.5817C5.83183 14.9039 6.09304 15.165 6.41517 15.165C6.73736 15.165 6.99851 14.9038 6.99851 14.5817V4.08116C6.99851 3.75897 7.25966 3.49782 7.58185 3.49782H27.4162C27.7384 3.49782 27.9995 3.75897 27.9995 4.08116V14.5817C27.9995 14.9039 28.2607 15.165 28.5828 15.165C28.905 15.165 29.1662 14.9038 29.1662 14.5817V10.0741L33.2701 13.2633L23.5414 20.8179C23.3741 20.9447 23.2877 21.1517 23.3155 21.3599C23.3432 21.568 23.4807 21.7452 23.6755 21.8238C23.8703 21.9023 24.0922 21.8702 24.2566 21.7396L33.8331 14.3035V32.9232H33.8333Z" fill="#D7AC8A"/>
<path d="M24.4992 13.9988V11.6654C24.4992 7.7992 21.3651 4.66504 17.4989 4.66504C13.6327 4.66504 10.4985 7.7992 10.4985 11.6654C10.4985 15.5316 13.6327 18.6657 17.4989 18.6657C17.8211 18.6657 18.0822 18.4046 18.0822 18.0824C18.0822 17.7602 17.8211 17.4991 17.4989 17.4991C14.2771 17.4991 11.6653 14.8873 11.6653 11.6655C11.6653 8.44366 14.2771 5.83186 17.4989 5.83186C20.7207 5.83186 23.3325 8.44366 23.3325 11.6655V13.9989C23.3325 14.6433 22.8101 15.1656 22.1657 15.1656C21.5213 15.1656 20.999 14.6433 20.999 13.9989V11.6655C20.999 11.3433 20.7378 11.0821 20.4157 11.0821C20.0935 11.0821 19.8323 11.3433 19.8323 11.6655C19.8323 12.9542 18.7876 13.9989 17.4989 13.9989C16.2102 13.9989 15.1655 12.9542 15.1655 11.6655C15.1655 10.3768 16.2102 9.33203 17.4989 9.33203C17.8211 9.33203 18.0822 9.07089 18.0822 8.74869C18.0822 8.4265 17.8211 8.16535 17.4989 8.16535C15.9324 8.16187 14.5542 9.19968 14.1249 10.7063C13.6956 12.2128 14.3195 13.8212 15.6526 14.644C16.9857 15.4668 18.7031 15.3037 19.8574 14.2446C19.9844 15.4783 21.0567 16.3956 22.2951 16.33C23.5337 16.2644 24.5031 15.2391 24.4992 13.9988Z" fill="#D7AC8A"/>
</svg>
