<svg width="30" height="30" viewBox="0 0 30 30" fill="#D7AC8A" xmlns="http://www.w3.org/2000/svg">
<g clip-path="url(#clip0_54:1063)">
<path d="M29.841 21.8994C29.8046 21.8211 29.7708 21.7561 29.7393 21.7041C29.2188 20.7667 28.2242 19.616 26.7559 18.2519L26.7249 18.2206L26.7094 18.2053L26.6937 18.1896H26.6779C26.0116 17.5544 25.5896 17.1273 25.4129 16.9086C25.0896 16.492 25.0171 16.0704 25.1938 15.6432C25.3187 15.3204 25.7876 14.6387 26.5996 13.5972C27.0267 13.0453 27.365 12.6029 27.6148 12.2696C29.4164 9.87447 30.1975 8.34394 29.9579 7.67742L29.8648 7.52167C29.8023 7.42789 29.6409 7.34211 29.3809 7.26388C29.1202 7.18581 28.7871 7.1729 28.3809 7.22493L23.8825 7.256C23.8096 7.23018 23.7056 7.23258 23.57 7.26388C23.4346 7.29517 23.3669 7.31087 23.3669 7.31087L23.2886 7.34999L23.2265 7.39698C23.1744 7.42806 23.1171 7.48271 23.0546 7.56084C22.9924 7.63869 22.9403 7.73005 22.8987 7.83416C22.409 9.09416 21.8522 10.2656 21.2272 11.3485C20.8419 11.9943 20.4881 12.5539 20.1649 13.0277C19.8422 13.5014 19.5714 13.8504 19.3529 14.0741C19.1341 14.298 18.9366 14.4774 18.7592 14.6129C18.5821 14.7485 18.4469 14.8058 18.3533 14.7848C18.2595 14.7638 18.1711 14.7431 18.0875 14.7223C17.9418 14.6285 17.8246 14.501 17.7363 14.3396C17.6475 14.1782 17.5878 13.9751 17.5565 13.7303C17.5255 13.4855 17.5071 13.2748 17.5018 13.0977C17.497 12.9209 17.4992 12.6707 17.5098 12.3479C17.5206 12.025 17.5255 11.8065 17.5255 11.6919C17.5255 11.2961 17.5332 10.8666 17.5487 10.4032C17.5644 9.93985 17.5772 9.5727 17.5878 9.30222C17.5984 9.03146 17.6034 8.74501 17.6034 8.44302C17.6034 8.14102 17.585 7.90419 17.5487 7.73229C17.5128 7.56062 17.4577 7.39397 17.3851 7.23242C17.312 7.07103 17.2051 6.94618 17.0649 6.85756C16.9243 6.76904 16.7496 6.69879 16.5416 6.6466C15.9897 6.5217 15.2868 6.45413 14.4328 6.44363C12.496 6.42284 11.2516 6.5479 10.6997 6.81866C10.481 6.93305 10.2831 7.08936 10.1062 7.28707C9.9187 7.51625 9.89255 7.64131 10.0279 7.66188C10.6528 7.75549 11.0952 7.97941 11.3555 8.33343L11.4493 8.52103C11.5223 8.65638 11.5952 8.896 11.6681 9.23958C11.7409 9.58315 11.7879 9.96321 11.8086 10.3795C11.8606 11.1398 11.8606 11.7906 11.8086 12.332C11.7565 12.8737 11.7072 13.2953 11.6602 13.5973C11.6133 13.8993 11.543 14.144 11.4493 14.3314C11.3555 14.5188 11.2931 14.6334 11.2618 14.6749C11.2306 14.7165 11.2045 14.7427 11.1838 14.753C11.0485 14.8049 10.9077 14.8313 10.762 14.8313C10.6161 14.8313 10.4392 14.7583 10.231 14.6125C10.0228 14.4666 9.80677 14.2663 9.58285 14.0111C9.35892 13.7559 9.10639 13.3992 8.82513 12.9411C8.54409 12.483 8.25249 11.9415 7.9505 11.3168L7.70065 10.8637C7.54445 10.5722 7.33109 10.1477 7.06033 9.59075C6.78942 9.03354 6.54995 8.49455 6.34179 7.97389C6.25858 7.75522 6.13357 7.58874 5.96698 7.47418L5.8888 7.42718C5.83683 7.3856 5.7534 7.34145 5.63894 7.2944C5.52433 7.24741 5.40474 7.21371 5.27967 7.19297L0.999858 7.22405C0.562516 7.22405 0.265775 7.32313 0.109527 7.52101L0.0469949 7.61462C0.0157561 7.66675 0 7.75002 0 7.86463C0 7.97919 0.0312387 8.1198 0.0937709 8.28628C0.718545 9.75466 1.39797 11.1708 2.13206 12.5349C2.86614 13.899 3.50404 14.9978 4.04539 15.8304C4.58684 16.6636 5.13874 17.4499 5.70109 18.189C6.26345 18.9284 6.63568 19.4022 6.81781 19.6104C7.00015 19.8189 7.14338 19.9749 7.24749 20.079L7.63806 20.4538C7.88797 20.7037 8.25496 21.0031 8.73918 21.3519C9.22352 21.7009 9.75972 22.0444 10.3481 22.3831C10.9365 22.7213 11.6211 22.9972 12.4022 23.2107C13.1831 23.4243 13.9432 23.51 14.6826 23.4687H16.4789C16.8433 23.4372 17.1193 23.3227 17.3069 23.1249L17.369 23.0466C17.4108 22.9845 17.4499 22.8879 17.486 22.758C17.5226 22.6279 17.5407 22.4845 17.5407 22.3285C17.5301 21.8808 17.5641 21.4773 17.6421 21.1181C17.7199 20.759 17.8086 20.4882 17.9079 20.3059C18.0071 20.1237 18.119 19.97 18.2436 19.8454C18.3684 19.7205 18.4574 19.6448 18.5096 19.6188C18.5614 19.5926 18.6028 19.5748 18.6341 19.5641C18.884 19.4808 19.1781 19.5615 19.5169 19.8064C19.8554 20.0511 20.1728 20.3533 20.4698 20.7124C20.7666 21.0718 21.1232 21.4751 21.5396 21.9228C21.9563 22.3706 22.3207 22.7035 22.633 22.9225L22.9452 23.1099C23.1538 23.235 23.4246 23.3496 23.7578 23.4537C24.0905 23.5577 24.382 23.5838 24.6323 23.5318L28.6308 23.4694C29.0263 23.4694 29.334 23.4039 29.5523 23.274C29.771 23.1438 29.901 23.0004 29.9429 22.8444C29.9847 22.6883 29.9869 22.5112 29.9508 22.3131C29.9138 22.1156 29.8773 21.9774 29.841 21.8994Z" fill="#D7AC8A"/>
</g>
<defs>
<clipPath id="clip0_54:1063">
<rect width="30" height="30" fill="white"/>
</clipPath>
</defs>
</svg>
